PathFileType	4	(X/Y/Z)	C:/Users/opensim2020/Desktop/walking_exp_matlab/subject06_walking21_straight_01.trc																																																																																																																																		
DataRate	CameraRate	NumFrames	NumMarkers	Units	OrigDataRate	OrigDataStartFrame	OrigNumFrames																																																																																																																														
100	100	4	44	mm	100	778	155																																																																																																																														
Frame#	Time	LFHD			RFHD			LBHD			RBHD			C7			T10			CLAV			STRN			RBAK			LSHO			LUPA			LELB			LFRM			LWRA			LWRB			LFIN			RSHO			RUPA			RELB			RFRM			RWRA			RWRB			RFIN			LASI			RASI			LPSI			RPSI			LTHI			LKNE			LTIB			LANK			LHEE			LTOE			RTHI			RKNE			RTIB			RANK			RHEE			RTOE			*39			*40			*41			*42			*43		
		X1	Y1	Z1	X2	Y2	Z2	X3	Y3	Z3	X4	Y4	Z4	X5	Y5	Z5	X6	Y6	Z6	X7	Y7	Z7	X8	Y8	Z8	X9	Y9	Z9	X10	Y10	Z10	X11	Y11	Z11	X12	Y12	Z12	X13	Y13	Z13	X14	Y14	Z14	X15	Y15	Z15	X16	Y16	Z16	X17	Y17	Z17	X18	Y18	Z18	X19	Y19	Z19	X20	Y20	Z20	X21	Y21	Z21	X22	Y22	Z22	X23	Y23	Z23	X24	Y24	Z24	X25	Y25	Z25	X26	Y26	Z26	X27	Y27	Z27	X28	Y28	Z28	X29	Y29	Z29	X30	Y30	Z30	X31	Y31	Z31	X32	Y32	Z32	X33	Y33	Z33	X34	Y34	Z34	X35	Y35	Z35	X36	Y36	Z36	X37	Y37	Z37	X38	Y38	Z38	X39	Y39	Z39	X40	Y40	Z40	X41	Y41	Z41	X42	Y42	Z42	X43	Y43	Z43	X44	Y44	Z44
																																																																																																																																					
20	0.19	-742.38617	1664.72461	-1028.47949	-755.35864	1645.8429	-899.97858	-877.20343	1614.44397	-1045.20178	-887.20428	1600.57019	-916.75061	-888.9776	1456.06006	-989.90448	-950.81073	1133.39771	-984.85834	-784.82874	1370.35327	-991.40662	-760.21796	1192.28979	-1002.86646	-972.99359	1291.77368	-909.73572	-840.08893	1408.19434	-1150.7644	-848.48334	1207.05322	-1222.22998	-850.33881	1094.0365	-1233.23767	-792.45667	955.09967	-1251.27417	-699.47449	867.98828	-1206.49231	-756.7525	841.07581	-1240.09497	-689.34943	781.81238	-1243.72253	-824.86945	1405.61182	-829.33069	-879.50305	1213.27417	-740.33838	-880.39771	1091.27197	-727.47278	-857.40375	973.58093	-712.79425	-786.59485	842.0321	-751.20172	-838.4743	837.40063	-708.71857	-795.09229	765.41705	-710.98956	-801.60266	957.67633	-1104.1698	-780.54266	965.38287	-886.16571	-951.5152	995.85736	-1067.66614	-930.95984	1003.64587	-901.73328	-839.83051	643.32007	-1161.90125	-800.62457	484.65579	-1145.51135	-968.15155	307.04349	-1121.44763	-1081.0813	180.7775	-1073.8009	-1115.06372	192.20395	-1022.41998	-994.03375	67.50175	-1088.20837	-826.57941	636.08539	-830.35614	-812.48724	512.48462	-861.367	-873.51318	250.04782	-870.23584	-897.37402	66.59921	-924.81689	-937.54126	43.5877	-970.09473	-745.37909	33.59506	-924.72614	-847.96594	1701.98425	-977.8183	NaN	NaN	NaN	NaN	NaN	NaN	NaN	NaN	NaN	NaN	NaN	NaN
21	0.2	-731.27905	1664.86792	-1028.69958	-743.97363	1646.17151	-899.97888	-866.21851	1614.87708	-1044.91992	-875.92615	1601.28699	-916.42352	-878.10925	1456.45337	-989.32428	-939.64276	1133.68359	-984.10425	-773.92328	1370.76855	-991.41382	-749.25952	1192.76599	-1002.40533	-961.86896	1291.9707	-908.48969	-829.98132	1408.51025	-1150.52612	-840.33032	1207.19995	-1222.09229	-843.81262	1094.24512	-1233.04211	-790.81262	953.32501	-1252.19861	-700.7262	862.22064	-1208.99854	-759.53851	837.81543	-1241.93408	-694.80585	775.81122	-1246.63135	-813.52075	1406.15454	-828.93274	-867.0166	1213.66748	-739.38959	-866.67023	1091.7417	-726.41949	-841.48755	974.59924	-712.10767	-768.18506	844.79663	-751.41779	-819.59045	838.86963	-708.59155	-774.68457	767.83905	-711.41986	-788.3382	959.10803	-1103.96741	-769.27472	966.00824	-885.47003	-939.83466	996.07312	-1067.70776	-920.08545	1003.77734	-901.63739	-821.43591	645.26782	-1162.25586	-778.80511	487.47736	-1144.46448	-940.47253	303.71689	-1121.99304	-1048.24414	172.56801	-1075.3894	-1083.05298	181.95772	-1024.05176	-954.9884	65.07113	-1089.57324	-819.10828	635.96716	-830.34503	-807.86328	511.819	-860.7359	-872.0401	249.99692	-869.90942	-897.31354	66.57785	-924.78033	-937.54791	43.69344	-970.06842	-745.39398	33.44618	-924.37964	-836.64606	1702.44214	-977.71185	NaN	NaN	NaN	NaN	NaN	NaN	NaN	NaN	NaN	NaN	NaN	NaN
22	0.21	-720.2561	1664.86792	-1028.87964	-732.53473	1646.33984	-900.10022	-855.24182	1615.0459	-1044.67163	-864.66028	1601.61707	-916.09015	-867.15143	1456.58472	-988.776	-928.54285	1133.71338	-983.4295	-763.12616	1370.91577	-990.9071	-738.32294	1193.04199	-1002.03003	-950.63293	1291.98047	-907.42004	-820.05139	1408.42017	-1150.13733	-832.45502	1207.26355	-1222.00232	-837.52472	1094.34949	-1233.00049	-789.27026	951.58197	-1253.13843	-702.28882	856.65167	-1211.34387	-762.56915	834.87732	-1243.85828	-700.51941	770.26538	-1249.44666	-802.16949	1406.4834	-828.58356	-854.53827	1213.95898	-738.49072	-853.01416	1092.1228	-725.36902	-825.54126	975.52399	-711.45538	-749.83698	847.51215	-751.62482	-800.79102	840.37329	-708.3067	-754.46906	770.29236	-711.7923	-776.33032	959.85706	-1103.16272	-758.53607	965.85358	-884.69122	-928.17218	996.09515	-1067.7561	-909.06952	1003.66656	-901.58148	-803.23273	646.97961	-1162.82922	-757.30383	490.22568	-1143.3407	-912.61237	300.16879	-1122.52686	-1014.39539	163.85367	-1077.31152	-1050.12134	171.26302	-1025.69177	-916.65295	61.26881	-1092.63733	-811.79254	635.71936	-830.47601	-803.12573	511.18735	-860.2392	-870.47742	249.97682	-869.96729	-897.20123	66.62643	-924.79071	-937.72052	43.96185	-970.00116	-745.40771	33.31709	-924.20587	-825.29926	1702.68103	-977.65063	NaN	NaN	NaN	NaN	NaN	NaN	NaN	NaN	NaN	NaN	NaN	NaN
23	0.22	-709.23041	1664.61902	-1029.17078	-721.15814	1646.2887	-900.24921	-844.29028	1615.03955	-1044.40613	-853.34601	1601.82739	-915.82898	-856.31421	1456.48059	-988.229	-917.38049	1133.47668	-982.85248	-752.23254	1370.89526	-990.77661	-727.28345	1193.09692	-1001.58508	-939.36743	1291.8739	-906.37085	-809.82465	1408.44763	-1149.78394	-824.66846	1207.13867	-1221.83667	-831.36664	1094.26001	-1232.92297	-787.94611	949.93024	-1254.10657	-704.18274	851.36566	-1213.599	-765.59961	832.2774	-1245.62585	-706.41229	764.99261	-1251.97534	-790.74615	1406.66846	-828.30225	-842.07013	1214.07751	-737.63544	-839.4024	1092.34265	-724.27155	-809.76123	976.35272	-710.74512	-731.57135	850.09625	-751.81061	-782.19092	841.70612	-708.38129	-734.2204	772.56372	-712.1062	-764.20581	960.53125	-1102.44678	-747.47552	965.84302	-884.21808	-916.3739	995.81177	-1067.77881	-898.0434	1003.43042	-901.38629	-784.63574	648.3905	-1162.59204	-736.16473	492.86951	-1142.22571	-884.43982	296.35117	-1123.0188	-979.97101	155.19901	-1078.98987	-1016.08179	160.29651	-1027.41138	-877.16052	58.1431	-1094.26868	-804.56891	635.29926	-830.73969	-798.35236	510.37207	-860.00793	-868.47229	249.84122	-869.94159	-896.87073	66.72984	-924.95856	-937.52551	44.13058	-970.1026	-745.28967	33.11603	-924.09479	-813.98767	1702.69922	-977.59119	NaN	NaN	NaN	NaN	NaN	NaN	NaN	NaN	NaN	NaN	NaN	NaN
